<svg xmlns="http://www.w3.org/2000/svg" viewBox="0 0 175 160"><clipPath id="a"><path d="M32.9 80.1c0 39.1 31.7 70.8 70.8 70.8s70.8-31.7 70.8-70.8-31.7-70.8-70.8-70.8h-.1C64.6 9.3 32.9 41 32.9 80z"/></clipPath><path fill="#fff" d="M-475.5-590h1350v3965h-1350z"/><g clip-path="url(#a)"><path fill="#a1cde8" d="M32.9 80.1c0 39.1 31.7 70.8 70.8 70.8s70.8-31.7 70.8-70.8-31.7-70.8-70.8-70.8h-.1C64.6 9.3 32.9 41 32.9 80z"/><g stroke="#1d6896" stroke-linecap="round" stroke-linejoin="round" stroke-width="1.97"><path fill="#1d6896" d="M107.3 28.7s5.2-.1 11 5.6c8.9 8.9 5.3 24.7 7.2 29.1s9.6 12.8 4.1 26.1c-6.2 14.8-19.9 15.1-35.1 15.1s-30.9-4.7-35.6-14.7c-7.2-15.5 2.4-21.2 4.3-27.6s-.5-18.6 8.4-29.8S94.5 20 101 23.8s6.3 4.9 6.3 4.9z"/><path fill="#fff" d="M102 89.9s-.2 16.1.8 19.2 5.9 11.3 5.9 11.3.4 5.5.3 10.1c-.5 13.9-14.2 24.9-14.2 24.9s-13-13.1-12.5-25.1c.2-5.2-2.2-9-1.5-10.7s4.6-8.6 5.4-11 .9-18.7.9-18.7z"/><path fill="#fff" d="M70 65.7c-.3 20.8 11.1 34.2 25 34.2s24.8-14.4 25-34.2c.2-18.2-11.2-33-25-33s-24.9 14.8-25 33z"/><path fill="#1d6896" d="M106.4 32.3c.7 4.2 1.7 8.3 3 12.3 3 8.1 16.7 27.4 16.7 27.4s-4-25.5-8-31.5-11.7-8.2-11.7-8.2z"/><path fill="#1d6896" d="M103.6 28.3c2.9 2.6 4 6.6 2.9 10.3-2.4 8.2-26 11.9-26 11.9 1-1.8 1.9-3.6 2.6-5.5.4-1.4.6-2.8.6-4.2 0 0-6.2 6.1-8 8.7-3.5 5-4.8 12.1-5.6 17.6s-1.7 11-1.7 11-4.9-25.6 2-35.6c3.6-5.4 10.8-18.7 33.2-14.2z"/><path fill="#b0d5ec" d="M154.6 163.7s-28-33.5-31.5-37-12.8-9-12.8-9-.8 14.8-2.6 18.5-12.3 49.2-12.8 49.2-11.6-47.5-12.5-49.7-.7-18.8-.7-18.8-11.8 6.8-14.3 9.7-7.7 9.5-7.7 9.5l.2 16.3 5.8-2.9s-1 14.2-1.4 20.3 5 23.6 4.5 27.3-12.1 62.1-12.1 62.1 29.1 3.6 32.1 0 5.6-10.5 5.6-10.5 1.9 7.3 4.8 10.5 31 0 31 0-9.3-57.7-9.1-61 4.4-24.5 4.1-28.2-1.5-14.7-1.5-14.7l15.8 18.6"/><path fill="#fff" d="M147.3 112.8s.7-12.1-.3-13.9-4.1-3.9-4.8-9.7c-.3-3.4.4-6.9 2.1-9.9 0 0 1.1-6.9 1.8-13.3s.5-11.6 2.4-11.3c4.2.7 1.8 17.8 1.8 17.8s3.8-3.9 5.1-3.2.4 4.6.4 4.6c.8-.3 1.8-.3 2.6 0 .5.4.8 1 .9 1.7 1.1 0 2.2.2 3.3.5 1 .5 1.7 4.8 1.5 6.3-.5 1.6-1.2 3.2-2.1 4.7 0 0 .8 8.8-1.6 10.4s-3.8 2.4-3.8 2.4l-.2 13.2zM144.3 79.3c1.8-2.6 3.8-4.9 6.2-6.9"/><g fill="none"><path d="M155.4 74.3s-3.3 2.3-4.4 4.4c-.6 1.5-1 3-1.3 4.5 0 0 2.4 3.5 2.9 6 .2 1.6.1 3.1-.5 4.6"/><path d="M151.5 85.8s1.4.6 2.2-.1c1.2-1.3 2-2.8 2.5-4.5-.1-2.1-.4-4.1-.8-6.1M154.9 86s1.7 1 2.7.1c1.2-1.2 2.1-2.7 2.6-4.3.3-1.9-.8-6.1-.8-6.1M158.5 85.2c-.1.7.3 1.3 1 1.5.8.2 1.7.1 2.5-.2"/></g><path fill="#b0d5ec" d="M143.6 148.9l-.2-42.3H161s.9 47.4.2 55.8-3.8 13.1-7 13.1c-6.1 0-16.1-11.2-19.1-15M66.6 150.7c-3.7 1.7-30.9 25.7-31.8 29.8s19.8 32.4 19.8 32.4L41.8 228s-25.4-45.1-24.9-48.4c1.3-9.1 36.7-45.5 56.1-57.2"/><path fill="#fff" d="M94.7 191s7.2-15.3 9.7-24.3 2.9-25.9 2.9-25.9H82.6s.8 19.2 2.4 26.9 9.7 23.3 9.7 23.3z"/><path fill="#b0d5ec" d="M85.4 110c-.6 3.3-1 6.6-1.1 10-.7 42.9 10.2 71.7 10.2 71.7-2.1-3.9-18.3-27.4-20.1-50.3l4.9-4.4-5.3-1.7s1.3-6.5 2.2-9.4c.6-2.1 1.4-4.1 2.4-6.1 0 0 4.4-9 6.8-9.8zM104.2 110c.7 3.3 1 6.6 1.1 10-.6 45.8-10.3 71.7-10.3 71.7s18.9-26.3 20.1-50.3l-4.8-4.4 5.2-1.7c-.5-3.2-1.2-6.3-2.2-9.4l-2.4-6.1s-4.3-9-6.7-9.8z"/><path fill="none" d="M95.7 65.8c-.4 1.4-.5 2.9-.3 4.4.2 2.3 1.1 6.7 1.1 6.7-.6.7-1.4 1.1-2.3 1.3-.8-.1-1.5-.5-2.1-1.1M111 56.9c-1.1-2.1-6.6-5.3-10-1.8M78.1 56.9c1.1-2.1 6.9-5.4 10-1.8"/></g><path fill="#1d6896" d="M103.6 65.3c0 1.8 1.1 3.2 2.3 3.2s2.3-1.4 2.3-3.2-1-3.3-2.3-3.3-2.3 1.5-2.3 3.3zM81.6 65.3c0 1.8 1 3.2 2.3 3.2s2.3-1.4 2.3-3.2-1.1-3.3-2.3-3.3-2.3 1.5-2.3 3.3z"/><g fill="none"><path stroke="#1d6896" stroke-linecap="round" stroke-linejoin="round" stroke-width="1.97" d="M101.1 85.6c-2.1 1.2-4.4 1.9-6.8 2.1-2.5 0-4.9-.8-7-2.1"/><path d="M32.9 80.1c0 39.1 31.7 70.8 70.8 70.8s70.8-31.7 70.8-70.8-31.7-70.8-70.8-70.8h-.1C64.6 9.3 32.9 41 32.9 80z"/></g></g><path fill="#fff" d="M56.8 48.4c.8 2.4-1.1-4.7-5.5-1.2-2.2 16.5 2.2 67.1-16.6 76.5C2.6 138.9 2.6 76.6 2.6 61.4c0-18.9 0-63.5 29.9-49.4 16.6 8.2 5.5 31.7 16.6 37.6 0 0 5.5-7.7 7.7-1.2z"/><g fill="#1d6896"><path d="M55.7 48.7c.1.2.1.4.2.5l2.2-.6c-.8-2.1-3.1-3.2-5.2-2.6-3.6.8-3 3.8-3.2 6.9-.6 10.9-.5 21.7-1.3 32.5s-2.1 23-8.1 32.2-17.2 10.9-24.4 3.3-8.1-15.5-9.6-23.6c-1.6-8.9-2.4-17.9-2.5-26.9-.5-16.5-1.8-36 5.5-51.2 2.6-5.3 6.8-9.7 13.1-9.4S36.3 14 39.2 20.3c3.9 8.6-.4 24.2 8.8 29.7.7.2 1.5 0 2.1-.5 1.4-2 4.1-4.4 5.6-.8.3.6 2.4-.1 2.2-.6-2.3-5.2-7.4-1.8-9.8 1.6l2-.5c-4.8-2.8-5.4-8.6-5.8-13.7s-.7-11.2-3.1-16.2c-4-8-15.1-12.4-23.6-9.7S5.9 20.9 4.1 28.6c-2.3 9.8-2.6 20-2.6 30.1-.1 17.6-.2 36.9 6.5 53.5 2.8 6.7 7.4 13.5 15.2 14.3 7.6.6 15-3 19.3-9.3 6.9-10.7 7.7-25.3 8.4-37.7.4-6.8.5-13.6.7-20.4.1-2.6.2-5.3.4-8s-.3-4.7 2.2-4c.8.2 1.4 1.4 1.7 2.1s2.4-.1 2.2-.6-.1-.3-.2-.5-2.4.1-2.2.6z"/><path d="M31.6 38c.5 0 .7.3.7.8.1.4-.2.7-.6.8H27.5c-.1 2.9-1.5 4.7-4.4 5.7h-.4c-.3.1-.6-.2-.7-.5-.1-.1-.1-.3-.1-.4 0-.3.2-.6.5-.8 2.2-.8 3.2-2 3.4-4.1h-5.1c-.4 0-.7-.3-.7-.7v-.1c0-.5.2-.8.7-.8h5.2v-2.1l-4.1.3c-.5 0-.8-.2-.8-.7s.2-.8.7-.8c1.5 0 3-.2 4.5-.4 1.3-.2 2.5-.5 3.7-.9h.4c.3 0 .6.1.8.4 0 .2.1.3.1.5 0 .3-.2.6-.5.7l-3.1.8V38zM31.9 55.7c.4 0 .6.4.6.8s-.2.7-.6.7h-8.7c-.4 0-.7-.3-.7-.7s.3-.7.7-.8h3.4v-5h-2.7c-.4 0-.7-.3-.7-.7s.3-.7.7-.8h7.3c.4 0 .6.4.6.8s-.3.6-.6.7h-2.9v5zM23.8 63.3c.3-.1.5.1.6.4.4.8.8 1.9 1.1 2.7v.2c0 .4-.3.6-.6.7h-.3c-.3 0-.6-.1-.7-.4-.2-.9-.5-1.8-.9-2.7V64c0-.3.2-.6.5-.7zm8.4.5c-.2 1.9-.8 3.6-1.8 5.2-1.2 1.5-2.8 2.6-4.7 3h-.3c-.3 0-.6-.2-.7-.5v-.3c0-.3.2-.6.5-.7 1.6-.4 3-1.2 4-2.5.8-1.3 1.3-2.8 1.4-4.4.1-.3.4-.5.7-.5h.2c.4.1.7.3.7.7zm-6.3-.4c0-.3.2-.6.5-.6h.4c.3 0 .5.2.6.5.5.8.8 1.7 1 2.6 0 .1 0 .1.1.2-.1.3-.3.6-.6.7h-.3c-.4 0-.6-.1-.7-.5-.3-.8-.6-1.7-.9-2.5-.1-.1-.1-.3-.1-.4zM25 78.6c-.8 1.3-1.8 2.4-3.1 3.2h-.5c-.3 0-.5-.1-.7-.3-.1-.2-.2-.3-.2-.5 0-.3.1-.6.4-.8.7-.5 1.3-1 1.8-1.6.7-.9 1.3-1.8 1.7-2.9.2-.4.4-.6.8-.6h.3c.5.1.7.4.7.7v.2c0 .3-.1.6-.3.8h3.9c.8-.2 1.6.4 1.8 1.2v.4c0 .2-.1.4-.1.6-.7 4.3-4.2 7.8-8.5 8.5h-.2c-.3 0-.7-.2-.8-.5-.1-.1-.1-.2-.1-.3 0-.4.3-.7.7-.8 3.8-1 6.2-3.4 6.9-6.8v-.2c0-.2-.1-.4-.5-.4zM27.2 100c.1.6-.4 1.1-1 1.2h-.1c-.7 0-1.2-.5-1.2-1.2s.5-1.2 1.2-1.2c.6 0 1.1.5 1.1 1.1zM25 90.5c0-.5.4-.8 1.1-.8s1.1.3 1.1.8l-.3 6.9c0 .4-.4.6-.8.6s-.8-.2-.8-.6z"/></g></svg>