<svg xmlns="http://www.w3.org/2000/svg" width="167" height="55.1" viewBox="0 0 167 55.1"><g fill="#fff"><path d="M89.9 27.4c0 2.2-.9 2.9-3.4 2.9H74.2c-2.4 0-3.4-.7-3.4-3V10.4c0-2.2 1-3 3.4-3h12.3c2.5 0 3.4.7 3.4 3zM87 11.1c0-.7-.2-.9-1-.9H74.7c-.7 0-.9.2-.9.9v3H87zm0 5.7H73.8v3.9H87zm-13.2 9.8c0 .7.2.9.9.9H86c.8 0 1-.2 1-.9v-3.2H73.8zM98.3 25.2c-1.6 0-2.3-.7-2.3-2.1v-7.3c0-1.5.8-2.1 2.6-2.1h11.2c1.9 0 2.7.6 2.7 2.1v7.3q0 2.1-2.4 2.1h-2v2.6c0 .6.2.7.6.8h3.7a1 1 0 00.8-.6 5.3 5.3 0 00.4-1.7c0-.6.4-1 1.2-1h.3c.9.1 1.3.6 1.3 1.2v.2c-.1 1.2-.3 2.6-.9 3.2a3.3 3.3 0 01-2.2 1.1h-6.2c-1.2-.3-1.9-.8-1.9-2.2v-3.6h-2.7c-.9 3.6-4 5.5-8.7 6.2h-.3a1.4 1.4 0 01-1.4-1.2v-.4a1.2 1.2 0 011.1-1.2c3.4-.4 5.5-1.4 6.2-3.4zM113.4 10c1.7 0 2.6.8 2.6 2.3v3.1c0 .7-.5 1-1.4 1s-1.3-.3-1.3-1v-2.3c0-.6-.2-.7-.8-.7H96c-.6 0-.8.1-.8.7v2.3c0 .7-.5 1-1.3 1s-1.4-.3-1.4-1v-3.1c0-1.5.9-2.3 2.7-2.3h1.9l-1.3-1.9a.9.9 0 01-.1-.5 1 1 0 01.9-.9h.7a1.3 1.3 0 011.1.5 20.4 20.4 0 011.8 2.9h3a22.5 22.5 0 00-1.1-2.2.8.8 0 01-.2-.4c0-.4.4-.8 1-1h.6a1.4 1.4 0 011.2.6 11.9 11.9 0 011.4 3h2.3a13.3 13.3 0 001.6-2.9 1.2 1.2 0 011.2-.6h.6c.7.2 1 .6 1 1V8a24.3 24.3 0 01-1.4 2zm-3.7 6.9v-.8c0-.4-.1-.5-.6-.5h-9.8c-.4 0-.6.1-.6.5v.8zm0 3.1v-1.2h-11V20zm-11 1.9v.8c0 .4.2.5.6.5h9.8c.5 0 .6-.1.6-.5v-.8zM123.3 29.1c-2.6 0-4.7-2-4.7-5.8a10.5 10.5 0 014.3-8.4c-.3-1.4-.5-2.8-.7-4.3v-.2a1.3 1.3 0 011.1-1.5h.4a1.2 1.2 0 011.3 1.2c.1 1.1.3 2.2.5 3.3a13.2 13.2 0 015.9-1.3c.2-.9.3-1.8.5-2.7s.5-1.3 1.3-1.3h.4c.9.1 1.3.6 1.3 1.3v.4c-.1.8-.3 1.7-.5 2.6a9.6 9.6 0 013.7 1.5 8.2 8.2 0 013.7 7.3c0 5.3-4 9-10.2 9.9h-.4a1.4 1.4 0 01-1.5-1.2.8.8 0 01-.1-.4c0-.8.5-1.3 1.4-1.5 4.7-.6 7.6-3.2 7.6-6.8a6 6 0 00-2.2-4.9 5.7 5.7 0 00-2.6-1.2 25.8 25.8 0 01-1 3.3 34.8 34.8 0 01-2.6 5.8l.5.8a1.1 1.1 0 01.3.8 2.1 2.1 0 01-.5 1.2 1.5 1.5 0 01-1.2.5.8.8 0 01-.7-.2l-.4-.6a6.1 6.1 0 01-4.9 2.4zm.4-11a7.2 7.2 0 00-2.2 5c0 1.8.8 3 1.9 3a3.6 3.6 0 002.9-1.7 30.6 30.6 0 01-2.6-6.3zm6.4-.6c.2-.8.5-1.7.7-2.7a9.1 9.1 0 00-4.6 1.3 21.4 21.4 0 002 5.7 21.4 21.4 0 001.9-4.3zM143.6 13.3c-.8 0-1.2-.7-1.2-1.5s.4-1.4 1.2-1.4h9.3V7.6c0-.7.6-1.1 1.6-1.1s1.5.4 1.5 1.1v2.8h9.7c.7 0 1.1.6 1.1 1.4s-.4 1.5-1.1 1.5h-12.2v.7c-.1.7-.1 1.5-.2 2.2h7.4c2.1 0 2.9.8 2.9 2.7a34.3 34.3 0 01-1.2 9c-.6 2-1.8 2.8-4.1 2.8a16.6 16.6 0 01-3.2-.3 1.2 1.2 0 01-1.1-1.3c0-.2 0-.3.1-.4s.5-1.2 1.2-1.2h.4l2.3.3c1 0 1.4-.3 1.6-1.1a26.3 26.3 0 00.9-6.9c0-.6-.3-.8-.9-.8h-6.8a16.5 16.5 0 01-7.9 11.6 1.7 1.7 0 01-1 .3 1.3 1.3 0 01-1.2-.7 1.4 1.4 0 01-.4-1 1.3 1.3 0 01.7-1.2c4.7-2.8 7.2-7 7.3-14.7z"/></g><path fill="#f7b140" d="M75.9 40.4c0 1-.5 1.5-1.4 1.5h-1.6c-.3 0-.4.1-.4.5v2.9c0 .4.1.5 1 .5s1.1-.1 1.2-.4a3.1 3.1 0 00.2-1.1c0-.4.3-.6.7-.6h.1c.3.1.6.3.6.6a4.5 4.5 0 01-.3 1.8l-.4.5a4.6 4.6 0 01-2.3.4c-1.8 0-2.2-.3-2.2-1.3v-3.8c0-1 .4-1.3 1.4-1.3h1.6c.3 0 .4-.1.4-.5v-1.5c0-.3-.1-.4-.4-.4h-2.6c-.4 0-.6-.3-.6-.7s.2-.7.6-.7h3c1 0 1.4.4 1.4 1.4zm6.1-.7l-.3 1.9a10.2 10.2 0 01-1.4 3.4 8.3 8.3 0 002.6 1.9.7.7 0 01.3.6 4.3 4.3 0 01-.1.5.8.8 0 01-.7.4H82a10.9 10.9 0 01-2.6-2.1 8.6 8.6 0 01-2.8 2.1l-.5.2a.8.8 0 01-.6-.4.8.8 0 01-.1-.4.8.8 0 01.4-.7 7.9 7.9 0 002.7-2 10.1 10.1 0 01-1.3-3l-.3.4c-.1.2-.2.3-.4.3l-.5-.2a.6.6 0 01-.3-.6c0-.1.1-.2.2-.3a13 13 0 001.9-5 .6.6 0 01.6-.5h.2c.4 0 .6.2.6.5v.2l-.3 1.4h3.8c.4 0 .6.3.6.7s-.2.7-.6.7zm-3.6 0l-.3.7a10.9 10.9 0 001.3 3.4 10.9 10.9 0 001-2.5c.1-.5.1-1.1.2-1.6zM88 40.2c-.7 0-1.1-.3-1.1-1v-.9h-2.3c-.3 0-.5-.2-.5-.6s.2-.6.5-.6h2.3v-.6c0-.3.3-.4.7-.4s.7.1.7.4v.6h3.8v-.6c0-.3.3-.4.7-.4s.7.1.7.4v.6h2.3c.4 0 .5.2.5.6s-.1.6-.5.6h-2.3v.9c0 .7-.4 1-1.1 1h-1.6v.6h3.3c.8 0 1.2.4 1.2 1.1v1.4a1.1 1.1 0 01-1.2 1.2h-3.3v.8h5c.3 0 .5.2.5.7s-.2.6-.5.6h-5v1.5c0 .3-.2.5-.7.5s-.7-.2-.7-.5v-1.5h-4.7c-.3 0-.5-.2-.5-.6s.2-.7.5-.7h4.7v-.8h-3c-.8 0-1.2-.4-1.2-1.1v-1.5c0-.7.4-1.1 1.2-1.1h3v-.6zm1.4 1.8H87c-.3 0-.4.1-.4.3v.7c0 .2.1.3.4.3h2.4zm-1.1-3.2c0 .2.1.2.3.2h3.2c.2 0 .3 0 .3-.2v-.5h-3.8zm5.2 4.5a.3.3 0 00.3-.3v-.7a.3.3 0 00-.3-.3h-2.7v1.3z"/><g fill="#1d6896"><path d="M106.1 37.9l1.1.2a1.9 1.9 0 01-.2-.8 1.6 1.6 0 111.6 1.6 1.1 1.1 0 01-.8-.3 3 3 0 01.2 1 .6.6 0 01-.1.4 9.6 9.6 0 01-7.6 8.2h-.3a.8.8 0 01-.8-.6c0-.1-.1-.2-.1-.3a.8.8 0 01.7-.8c3.5-1 5.9-3.3 6.3-6.5v-.2c0-.3-.1-.4-.5-.4h-7.4c-.4 0-.6-.3-.6-.8s.2-.8.6-.8zm1.7-.6a.8.8 0 00.8.7.7.7 0 00.7-.7.8.8 0 00-.7-.8.9.9 0 00-.8.8zM121.4 45.7a1.5 1.5 0 01-1.7 1.7h-6.8a1.5 1.5 0 01-1.7-1.7v-6.6a1.5 1.5 0 011.7-1.7h6.8a1.5 1.5 0 011.7 1.7zm-2.3.1c.5 0 .6-.1.6-.6v-5.6c0-.5-.1-.6-.6-.6h-5.6c-.5 0-.6.1-.6.6v5.6c0 .5.1.6.6.6zM127.6 41.6a.8.8 0 01.4.7 4.3 4.3 0 00-.1.5 1.3 1.3 0 01-.7.4l-.5-.2-2.8-1.4a.8.8 0 01-.4-.6c0-.2.1-.3.2-.5a.5.5 0 01.6-.4h.4zm5.9-2.2h.3a.7.7 0 01.6.7v.3a10 10 0 01-3.4 5.3 11.6 11.6 0 01-6.2 2.2h-.1a.9.9 0 01-.9-.8c0-.4.3-.7.8-.8a9.9 9.9 0 005.4-1.8 8.2 8.2 0 002.8-4.4.7.7 0 01.7-.7zm-4.9-1.1a.7.7 0 01.4.6 4.3 4.3 0 01-.1.5 1 1 0 01-.8.5l-.4-.2-2.6-1.4a.6.6 0 01-.5-.6c0-.1.1-.3.1-.4s.4-.5.7-.5h.4a14.6 14.6 0 012.8 1.5zm3.9-1.8a.5.5 0 01.5.3 3.1 3.1 0 01.8 1.3.4.4 0 01.1.3.5.5 0 01-.3.5h-.3a.5.5 0 01-.5-.3l-.8-1.3a.4.4 0 01-.1-.3.5.5 0 01.3-.5zm1.8-.6l.5.3.7 1.3c0 .1.1.2.1.3a.9.9 0 01-.3.5h-.4a.5.5 0 01-.5-.3 4.7 4.7 0 00-.7-1.2c0-.1-.1-.2-.1-.3a.7.7 0 01.4-.5zM144.6 46a.7.7 0 01.6.7c0 .4-.2.8-.6.8h-8.2c-.4 0-.6-.4-.6-.8a.7.7 0 01.6-.7h3.3v-4.7H137a.7.7 0 010-1.4h6.9a.7.7 0 110 1.4h-2.7V46zM150.3 39.7a10.3 10.3 0 01-2.9 3h-.5a.7.7 0 01-.8-.8.8.8 0 01.4-.7 6.4 6.4 0 001.7-1.6 10.1 10.1 0 001.6-2.7.7.7 0 01.7-.5h.3c.5.1.7.4.7.7s-.1.1-.1.2a4.1 4.1 0 01-.3.8h3.7a1.5 1.5 0 011.7 1.6 4.3 4.3 0 00-.1.5 9.9 9.9 0 01-7.9 7.9h-.3a.6.6 0 01-.7-.5.4.4 0 01-.1-.3.8.8 0 01.6-.8c3.7-.9 5.9-3.1 6.6-6.3V40c0-.3-.1-.4-.5-.4zM160.1 47.4c0 .5-.4.7-.9.7s-.8-.2-.8-.7V37.2c0-.5.3-.7.8-.7s.9.2.9.7v3.2a47 47 0 016.3 2.2.9.9 0 01.6.8c0 .1-.1.3-.1.4a.8.8 0 01-.8.6h-.4a34 34 0 00-5.6-2.1z"/></g><path fill="#f7b140" d="M8.1 43.7a6.3 6.3 0 010-6.6 5 5 0 00-2.3.9A6.1 6.1 0 004 46.4a6 6 0 008.4 1.8 5.2 5.2 0 001.8-1.8 6.1 6.1 0 01-6.1-2.7zM38 10.4a.3.3 0 00.3.3 10.9 10.9 0 012.6.4c.8.5.7.8.6 1.6s-1.6 2.2-1.6 2.2v.5h.5a12.6 12.6 0 012.2-1.6c.6-.3 1.1-.1 1.4.6a20.6 20.6 0 01.4 2.8.4.4 0 00.4.4c.2 0 .3-.2.3-.4s.1-2.7.5-3.2.5-.5 1.2-.4 2.4 1.9 2.4 1.9h.5a.5.5 0 000-.5 11.2 11.2 0 01-1.5-2.4c-.2-.7 0-1.5.8-1.6l2.2-.2a.5.5 0 00.5-.4.5.5 0 00-.5-.4L49 9.8c-1-.1-1-.9-.8-1.6a9.1 9.1 0 011.5-2.4.4.4 0 000-.5c-.2-.2-.4-.2-.5 0S47.5 7 46.8 7.1a1.3 1.3 0 01-1.3-.4 10 10 0 01-.4-3.1c0-.2-.1-.4-.3-.4a.4.4 0 00-.4.4 21.1 21.1 0 01-.5 2.8.9.9 0 01-1.3.7 12.1 12.1 0 01-2.2-1.7.5.5 0 00-.5 0v.4s1.5 1.5 1.6 2.2.4 1.1-.6 1.6a12.5 12.5 0 01-2.6.5.3.3 0 00-.3.3z"/><path fill="#fff" d="M2.2 36.2a.9.9 0 01-.9-.6A24.9 24.9 0 01.1 25.5a26.1 26.1 0 012.7-9.8A25.9 25.9 0 0118 2.8a24.5 24.5 0 018.1-1.3 25.5 25.5 0 017.2 1l-.7-1.1a.8.8 0 01-.2-.7l.4-.6h.5a1.2 1.2 0 01.8.4l2.1 3.4a.8.8 0 010 1 1 1 0 01-.7.4h-.4a23.3 23.3 0 00-9-1.8 24.6 24.6 0 00-7.6 1.2 23.9 23.9 0 00-14 12.1A23.8 23.8 0 003 35.1a.6.6 0 010 .6c-.1.3-.3.4-.6.5zM18.8 55.1a1.2 1.2 0 01-.8-.4l-2.1-3.4a.7.7 0 010-1 1.3 1.3 0 01.7-.4h.4a23.4 23.4 0 009.1 1.8 24.2 24.2 0 0023-31.7.8.8 0 010-.7.9.9 0 01.6-.4h.2a1 1 0 01.9.7 25.7 25.7 0 01-1.5 19.8 26.4 26.4 0 01-15.2 13 24.4 24.4 0 01-8 1.3 29.9 29.9 0 01-7.3-1l.7 1.1a.8.8 0 01.2.7 1 1 0 01-.4.5l-.5.2z"/><path fill="#1d6896" d="M20.4 15a5.8 5.8 0 00-6.1 5.5c-.1.1.1.4.3.2l6-5.3c.2-.2 0-.4-.2-.4zM31.9 15a5.8 5.8 0 014.2 1.5 5.6 5.6 0 011.9 4c0 .1-.1.4-.3.2l-6-5.3c-.2-.2 0-.4.2-.4zM37.6 38.6l-2.7-3c-.4-.7-.3-1.2-.1-1.4a10.9 10.9 0 002.1-6.4 10.8 10.8 0 10-21.6 0 10.3 10.3 0 002.2 6.4 1.3 1.3 0 01-.2 1.4c-.4.6-2.6 3-2.6 3s-.2.5 0 .6l.3.2.3-.2s2.6-2.3 3.1-2.6a1.3 1.3 0 011.6.1 10.8 10.8 0 006.1 1.9 11.1 11.1 0 006.2-1.9 1.3 1.3 0 011.6-.1c.5.3 3 2.6 3 2.6l.3.2.4-.2a.6.6 0 000-.6z"/><path fill="#fff" d="M26.1 36.4a8.6 8.6 0 0 1 0-17.2 8.6 8.6 0 0 1 0 17.2z"/><path fill="#1d6896" d="M22.9 31.5h-.3a.6.6 0 0 1 0-.8l2.8-3.1.2-6a.5.5 0 0 1 .5-.5.5.5 0 0 1 .5.5l.2 6.5-3.5 3.4z"/></svg>